<svg width="126" height="39" viewBox="0 0 126 39" fill="none" xmlns="http://www.w3.org/2000/svg">
<path d="M1.52 30.68C5.6 30.16 11.4 30.84 11.4 29.28C11.4 28.72 11.08 28.4 10.72 28.4C10.08 28.4 9.6 28.6 8.76 28.6C9.04 23.36 8.72 15.48 8.72 11.56C8.72 7.4 9.32 2.56 9.32 1.44C9.32 0.799999 9 0.519998 8.32 0.519998C5.4 0.519998 0.2 0.96 0.2 1.92C0.2 2.48 0.36 3.04 0.8 3.04C1.48 3.04 2.08 2.56 3.4 2.52C2.4 11.64 2.64 19.8 3.4 28.76C1.64 28.8 0.48 29.12 0.48 29.88C0.48 30.6 0.84 30.76 1.52 30.68ZM45.5225 31C51.2825 31 54.6025 26.16 54.6025 20.8C54.6025 16.72 53.0425 9.72 44.9625 9.72C39.4025 9.72 35.4825 14.44 35.4825 19.68C35.4825 26.52 39.0025 31 45.5225 31ZM23.0425 31.16C28.8025 31.16 32.3625 25.72 32.3625 20.36C32.3625 16.28 30.7225 9.88 22.6425 9.88C17.0825 9.88 13.1625 13.64 13.1625 21.28C13.1625 26.52 16.5225 31.16 23.0425 31.16ZM48.2825 28.24C46.7625 29.32 43.8025 29.56 42.0425 27.96C41.0425 22.88 41.9225 17.96 41.9225 12.84C43.4825 11.2 46.5225 11.4 48.0425 12.56C48.6825 17.84 48.0025 23.52 48.2825 28.24ZM25.9625 28.48C24.4425 29.44 21.5225 29.6 19.7225 28.4C19.6425 23.32 18.9625 17.8 19.6025 12.68C21.1625 11.44 24.2025 11.64 25.7225 12.48C25.5625 17.76 26.0825 23.68 25.9625 28.48ZM66.9709 30.92C67.5309 31 67.8109 30.6 67.7709 30.12C67.6909 29.12 66.7309 29.28 65.6909 28.92C65.8909 26.6 66.2109 24.52 65.8909 22.2C66.0909 22.12 66.2909 22 66.4909 21.88C68.0509 24.52 70.3709 26.64 72.1309 29.24C71.7709 29.4 71.2509 29.52 70.5309 29.64C69.6509 29.76 69.9309 31.2 70.5709 31.28C71.8509 31.48 75.8909 29.88 78.9709 29.64C79.4909 29.6 79.8509 29.36 79.8509 28.88C79.8509 28.36 79.6109 27.8 79.1709 27.76C78.6109 27.72 77.8909 27.8 77.2109 27.88C74.9709 24.32 71.8909 21.6 70.2109 18.84C72.3709 16.8 74.3309 14.84 75.6909 12.44C76.6109 12.64 77.7309 12.64 78.0109 12.56C79.0909 12.2 78.8509 10.84 78.2509 10.84C75.6509 10.84 72.8909 10.44 70.9709 10.24C70.1709 10.16 70.0509 11.88 70.6909 11.96C71.2909 12.04 72.2509 12.04 73.1709 12.24C71.4109 14.88 68.2909 17.64 65.6509 19.6C65.2909 14.36 65.8509 7.84 65.8509 1.72C65.8509 0.76 65.3309 0.559998 64.7309 0.559998C62.2909 0.559998 59.0909 1.44 57.2909 1.44C56.8109 1.44 56.4109 1.68 56.4109 2.36C56.4109 3.52 58.4509 3.2 59.8509 2.84C60.5709 11.68 59.4509 15.2 60.1709 28.52C59.5709 28.4 58.5709 28.36 58.1709 28.36C57.4909 28.36 57.2109 28.96 57.2109 29.44C57.2109 29.84 57.4909 30.24 58.0109 30.24C59.6109 30.24 64.7309 30.68 66.9709 30.92ZM97.6809 30.88C101.041 29.92 103.681 30.28 103.681 29.04C103.681 28.04 102.121 28.08 100.921 28.48C100.201 22.76 100.881 15.4 100.881 11.48C100.881 10.76 100.481 10.56 99.7609 10.56C98.3209 10.56 95.4009 11 93.0809 11C92.4409 11 92.2809 11.6 92.2809 12.12C92.2809 12.72 93.4809 13 95.3609 12.64C94.6409 17.28 94.6809 22.2 95.2409 27C93.0409 29.04 89.3609 29.24 88.8409 28.4C89.3209 22.92 88.3609 18.52 89.1609 11.52C89.2409 10.8 89.1609 10.04 87.9609 10.04C85.4809 10.04 83.1209 10.44 81.0009 10.44C80.5209 10.44 80.2809 11.04 80.2809 11.52C80.2809 12.52 81.9209 12.32 83.1209 12.08C83.3609 18.2 82.6809 22.12 83.0409 26.88C83.4009 31.36 92.2809 32.72 95.9609 29.04C96.0009 30.16 96.7209 31.16 97.6809 30.88ZM115.148 38.48C115.508 38.52 115.748 38.08 115.748 37.64C115.748 37.36 115.468 37.04 114.948 36.92C114.308 36.76 113.548 36.72 112.868 36.68C112.988 34.44 112.948 32.84 112.828 30.16C119.028 31.68 125.348 30.64 125.348 20C125.348 14.48 121.428 10.36 116.788 10.28C114.708 10.28 112.508 11.04 110.428 12.88C110.268 11.84 109.788 10.52 109.028 10.52C107.308 10.52 105.428 10.88 104.428 11C103.988 11.16 103.828 11.2 103.828 11.76C103.828 13.12 105.228 12.68 106.908 12.4C106.868 22.92 107.508 28.72 106.988 36.72C105.828 36.76 104.708 37 104.708 37.64C104.708 37.96 104.948 38.48 105.428 38.44C107.188 38.28 111.788 38.16 115.148 38.48ZM112.828 28.08C112.308 22.8 113.108 19.56 112.508 13.88C113.308 13.04 114.988 12.28 116.548 12.28C117.508 12.28 118.548 12.6 119.388 13.36C118.708 17.56 120.028 23 118.988 28.2C117.628 29.16 114.388 28.76 112.828 28.08Z" fill="white"/>
</svg>
