<svg width="51" height="16" viewBox="0 0 51 16" fill="none" xmlns="http://www.w3.org/2000/svg">
<path d="M0.608 12.272C2.24 12.064 4.56 12.336 4.56 11.712C4.56 11.488 4.432 11.36 4.288 11.36C4.032 11.36 3.84 11.44 3.504 11.44C3.616 9.344 3.488 6.192 3.488 4.624C3.488 2.96 3.728 1.024 3.728 0.575999C3.728 0.32 3.6 0.207999 3.328 0.207999C2.16 0.207999 0.08 0.384 0.08 0.768C0.08 0.992 0.144 1.216 0.32 1.216C0.592 1.216 0.832 1.024 1.36 1.008C0.96 4.656 1.056 7.92 1.36 11.504C0.656 11.52 0.192 11.648 0.192 11.952C0.192 12.24 0.336 12.304 0.608 12.272ZM18.209 12.4C20.513 12.4 21.841 10.464 21.841 8.32C21.841 6.688 21.217 3.888 17.985 3.888C15.761 3.888 14.193 5.776 14.193 7.872C14.193 10.608 15.601 12.4 18.209 12.4ZM9.217 12.464C11.521 12.464 12.945 10.288 12.945 8.144C12.945 6.512 12.289 3.952 9.057 3.952C6.833 3.952 5.265 5.456 5.265 8.512C5.265 10.608 6.609 12.464 9.217 12.464ZM19.313 11.296C18.705 11.728 17.521 11.824 16.817 11.184C16.417 9.152 16.769 7.184 16.769 5.136C17.393 4.48 18.609 4.56 19.217 5.024C19.473 7.136 19.201 9.408 19.313 11.296ZM10.385 11.392C9.777 11.776 8.609 11.84 7.889 11.36C7.857 9.328 7.585 7.12 7.841 5.072C8.465 4.576 9.681 4.656 10.289 4.992C10.225 7.104 10.433 9.472 10.385 11.392ZM26.7884 12.368C27.0124 12.4 27.1244 12.24 27.1084 12.048C27.0764 11.648 26.6924 11.712 26.2764 11.568C26.3564 10.64 26.4844 9.808 26.3564 8.88C26.4364 8.848 26.5164 8.8 26.5964 8.752C27.2204 9.808 28.1484 10.656 28.8524 11.696C28.7084 11.76 28.5004 11.808 28.2124 11.856C27.8604 11.904 27.9724 12.48 28.2284 12.512C28.7404 12.592 30.3564 11.952 31.5884 11.856C31.7964 11.84 31.9404 11.744 31.9404 11.552C31.9404 11.344 31.8444 11.12 31.6684 11.104C31.4444 11.088 31.1564 11.12 30.8844 11.152C29.9884 9.728 28.7564 8.64 28.0844 7.536C28.9484 6.72 29.7324 5.936 30.2764 4.976C30.6444 5.056 31.0924 5.056 31.2044 5.024C31.6364 4.88 31.5404 4.336 31.3004 4.336C30.2604 4.336 29.1564 4.176 28.3884 4.096C28.0684 4.064 28.0204 4.752 28.2764 4.784C28.5164 4.816 28.9004 4.816 29.2684 4.896C28.5644 5.952 27.3164 7.056 26.2604 7.84C26.1164 5.744 26.3404 3.136 26.3404 0.688C26.3404 0.304 26.1324 0.223999 25.8924 0.223999C24.9164 0.223999 23.6364 0.575999 22.9164 0.575999C22.7244 0.575999 22.5644 0.672 22.5644 0.943999C22.5644 1.408 23.3804 1.28 23.9404 1.136C24.2284 4.672 23.7804 6.08 24.0684 11.408C23.8284 11.36 23.4284 11.344 23.2684 11.344C22.9964 11.344 22.8844 11.584 22.8844 11.776C22.8844 11.936 22.9964 12.096 23.2044 12.096C23.8444 12.096 25.8924 12.272 26.7884 12.368ZM39.0724 12.352C40.4164 11.968 41.4724 12.112 41.4724 11.616C41.4724 11.216 40.8484 11.232 40.3684 11.392C40.0804 9.104 40.3524 6.16 40.3524 4.592C40.3524 4.304 40.1924 4.224 39.9044 4.224C39.3284 4.224 38.1604 4.4 37.2324 4.4C36.9764 4.4 36.9124 4.64 36.9124 4.848C36.9124 5.088 37.3924 5.2 38.1444 5.056C37.8564 6.912 37.8724 8.88 38.0964 10.8C37.2164 11.616 35.7444 11.696 35.5364 11.36C35.7284 9.168 35.3444 7.408 35.6644 4.608C35.6964 4.32 35.6644 4.016 35.1844 4.016C34.1924 4.016 33.2484 4.176 32.4004 4.176C32.2084 4.176 32.1124 4.416 32.1124 4.608C32.1124 5.008 32.7684 4.928 33.2484 4.832C33.3444 7.28 33.0724 8.848 33.2164 10.752C33.3604 12.544 36.9124 13.088 38.3844 11.616C38.4004 12.064 38.6884 12.464 39.0724 12.352ZM46.0593 15.392C46.2033 15.408 46.2993 15.232 46.2993 15.056C46.2993 14.944 46.1873 14.816 45.9793 14.768C45.7233 14.704 45.4193 14.688 45.1473 14.672C45.1953 13.776 45.1793 13.136 45.1313 12.064C47.6113 12.672 50.1393 12.256 50.1393 8C50.1393 5.792 48.5713 4.144 46.7153 4.112C45.8833 4.112 45.0033 4.416 44.1713 5.152C44.1073 4.736 43.9153 4.208 43.6113 4.208C42.9233 4.208 42.1713 4.352 41.7713 4.4C41.5953 4.464 41.5312 4.48 41.5312 4.704C41.5312 5.248 42.0913 5.072 42.7633 4.96C42.7473 9.168 43.0033 11.488 42.7953 14.688C42.3313 14.704 41.8833 14.8 41.8833 15.056C41.8833 15.184 41.9793 15.392 42.1713 15.376C42.8753 15.312 44.7153 15.264 46.0593 15.392ZM45.1313 11.232C44.9233 9.12 45.2433 7.824 45.0033 5.552C45.3233 5.216 45.9953 4.912 46.6193 4.912C47.0033 4.912 47.4193 5.04 47.7553 5.344C47.4833 7.024 48.0113 9.2 47.5953 11.28C47.0513 11.664 45.7552 11.504 45.1313 11.232Z" fill="white"/>
</svg>
