<svg width="60" height="68" viewBox="0 0 60 68" fill="none" xmlns="http://www.w3.org/2000/svg">
<path fill-rule="evenodd" clip-rule="evenodd" d="M42.2205 66.4743L42.0695 8.49148C41.6786 8.10093 40.916 8.21887 40.6179 8.30587L38.6321 8.92069C38.387 8.11496 38.0689 7.33322 37.6818 6.58514C36.2728 3.89771 34.2134 2.47665 31.7205 2.47279H31.7128C31.5463 2.47279 31.3818 2.48825 31.2153 2.50179L31.196 2.50372C31.1239 2.41502 31.049 2.32862 30.9715 2.24465C29.8876 1.0846 28.4941 0.518115 26.8257 0.56645C23.6089 0.659253 20.4057 2.98321 17.8063 7.11102C15.9773 10.0169 14.5895 13.6653 14.1928 16.49L7.85792 18.4524C5.99405 19.0382 5.93599 19.0962 5.69018 20.8537C5.50631 22.1838 0.626953 59.922 0.626953 59.922L41.5199 66.9944L42.2205 66.4724V66.4743ZM28.8231 3.21715C28.2792 2.85947 27.6424 2.6932 26.8876 2.70866C21.9211 2.85173 17.5895 10.6105 16.4844 15.7804L21.2418 14.3072L22.0915 14.0442C22.7147 10.7613 24.2786 7.35463 26.3244 5.16215C27.0397 4.37653 27.8841 3.71873 28.8211 3.21715H28.8231ZM24.4431 13.3153L31.2715 11.2002C31.2928 9.42144 31.0992 6.79201 30.2089 4.93594C29.2605 5.32649 28.4631 6.01092 27.8902 6.62381C26.3553 8.273 25.1031 10.7884 24.445 13.3153H24.4431ZM33.4102 10.539L36.5844 9.55485C36.0773 7.90759 34.8734 5.14669 32.4328 4.68267C33.1915 6.64121 33.387 8.90909 33.4102 10.539Z" fill="#95BF47"/>
<path d="M51.3832 12.8049C51.1394 12.7856 46.4129 12.7121 46.4129 12.7121C46.4129 12.7121 42.4587 8.87234 42.0678 8.47986C41.9164 8.3403 41.7246 8.2523 41.52 8.22852V66.9847L59.2394 62.5785C59.2394 62.5785 52.0084 13.6807 51.9619 13.3462C51.9396 13.2042 51.8703 13.0737 51.765 12.9756C51.6598 12.8775 51.5247 12.8174 51.3813 12.8049H51.3832Z" fill="#5E8E3E"/>
<path d="M31.6994 21.9287L29.64 29.6313C29.64 29.6313 27.3446 28.5854 24.6213 28.7574C20.6304 29.0088 20.5878 31.528 20.6284 32.1602C20.8452 35.6017 29.9052 36.3557 30.4142 44.4238C30.8149 50.7712 27.0484 55.1155 21.6213 55.4558C15.1084 55.8676 11.522 52.024 11.522 52.024L12.902 46.1504C12.902 46.1504 16.5117 48.8745 19.3994 48.6908C21.2884 48.5729 21.962 47.0378 21.8942 45.9512C21.6097 41.4599 14.2317 41.7229 13.7652 34.3411C13.3742 28.1252 17.4523 21.832 26.4542 21.2636C29.9226 21.0432 31.6994 21.9306 31.6994 21.9306" fill="white"/>
</svg>
