<svg width="26" height="26" viewBox="0 0 26 26" fill="none" xmlns="http://www.w3.org/2000/svg">
<path d="M6.21127 4.33325C5.1738 4.33325 4.3335 5.17356 4.3335 6.21103V19.3555C4.3335 20.3929 5.1738 21.2333 6.21127 21.2333H19.3557C20.3932 21.2333 21.2335 20.3929 21.2335 19.3555V6.21103C21.2335 5.17356 20.3932 4.33325 19.3557 4.33325H6.21127ZM6.21127 6.21103H19.3557V19.3555H6.21127V6.21103ZM8.82072 7.44699C8.0161 7.44699 7.53342 7.93068 7.53342 8.57476C7.53342 9.21883 8.01616 9.70069 8.74004 9.70069C9.54467 9.70069 10.0273 9.21883 10.0273 8.57476C10.0273 7.93068 9.54461 7.44699 8.82072 7.44699ZM7.5976 10.9055V17.4777H9.96683V10.9055H7.5976ZM11.9216 10.9055V17.4777H14.2909V13.8853C14.2909 12.816 15.0538 12.6622 15.2829 12.6622C15.512 12.6622 16.1246 12.892 16.1246 13.8853V17.4777H18.4168V13.8853C18.4168 11.8226 17.5002 10.9055 16.3538 10.9055C15.2075 10.9055 14.596 11.2872 14.2909 11.8224V10.9055H11.9216Z" fill="white" fill-opacity="0.5"/>
</svg>
