<svg width="26" height="26" viewBox="0 0 26 26" fill="none" xmlns="http://www.w3.org/2000/svg">
<path d="M5.92212 3.8999C4.80687 3.8999 3.8999 4.80687 3.8999 5.92212V20.0777C3.8999 21.1929 4.80687 22.0999 5.92212 22.0999H12.6168H15.4408H20.0777C21.1929 22.0999 22.0999 21.1929 22.0999 20.0777V5.92212C22.0999 4.80687 21.1929 3.8999 20.0777 3.8999H5.92212ZM5.92212 5.92212H20.0777L20.0797 20.0777H15.4408V16.0688H17.8323L18.1878 13.3139H15.4566V11.5583C15.4566 10.7615 15.6786 10.2233 16.8212 10.2233H18.2648V7.76464C17.5621 7.69285 16.8565 7.65795 16.1498 7.65997C14.0527 7.65997 12.6168 8.93988 12.6168 11.2897V13.3179H10.247V16.0727H12.6168V20.0777H5.92212V5.92212Z" fill="white" fill-opacity="0.5"/>
</svg>
