<svg width="26" height="26" viewBox="0 0 26 26" fill="none" xmlns="http://www.w3.org/2000/svg">
<path d="M22.3892 6.93134C21.6714 7.25008 20.9005 7.46457 20.0912 7.56132C20.9177 7.06634 21.5514 6.28262 21.8499 5.34815C21.0775 5.80639 20.221 6.13937 19.309 6.31937C18.5793 5.54165 17.5398 5.05566 16.3894 5.05566C14.18 5.05566 12.389 6.84735 12.389 9.05601C12.389 9.3695 12.425 9.67549 12.4925 9.96722C9.16792 9.80073 6.22053 8.20779 4.24661 5.78689C3.90312 6.37786 3.70588 7.06484 3.70588 7.79906C3.70588 9.1865 4.4116 10.4112 5.48481 11.1282C4.82934 11.1072 4.21211 10.9272 3.67288 10.6279C3.67288 10.6452 3.67288 10.6609 3.67288 10.6782C3.67288 12.6169 5.05133 14.2338 6.88201 14.6005C6.54677 14.692 6.19278 14.7408 5.82755 14.7408C5.57031 14.7408 5.31907 14.7153 5.07533 14.6695C5.58456 16.2587 7.062 17.4159 8.81243 17.4482C7.44374 18.5214 5.7188 19.1611 3.84387 19.1611C3.52139 19.1611 3.20265 19.1424 2.88916 19.1049C4.65984 20.2396 6.76201 20.9018 9.02167 20.9018C16.3804 20.9018 20.4032 14.806 20.4032 9.51949C20.4032 9.34625 20.3995 9.17376 20.392 9.00201C21.1742 8.43728 21.8529 7.73306 22.3892 6.93134Z" fill="white" fill-opacity="0.5"/>
</svg>
