<svg width="26" height="26" viewBox="0 0 26 26" fill="none" xmlns="http://www.w3.org/2000/svg">
<path d="M8.66639 3.61108C5.87876 3.61108 3.61084 5.87901 3.61084 8.66664V16.7555C3.61084 19.5432 5.87876 21.8111 8.66639 21.8111H16.7553C19.5429 21.8111 21.8108 19.5432 21.8108 16.7555V8.66664C21.8108 5.87901 19.5429 3.61108 16.7553 3.61108H8.66639ZM8.66639 5.63331H16.7553C18.4277 5.63331 19.7886 6.99426 19.7886 8.66664V16.7555C19.7886 18.4279 18.4277 19.7889 16.7553 19.7889H8.66639C6.99402 19.7889 5.63306 18.4279 5.63306 16.7555V8.66664C5.63306 6.99426 6.99402 5.63331 8.66639 5.63331ZM17.7664 6.64442C17.4982 6.64442 17.241 6.75094 17.0514 6.94056C16.8618 7.13018 16.7553 7.38736 16.7553 7.65553C16.7553 7.92369 16.8618 8.18087 17.0514 8.37049C17.241 8.56011 17.4982 8.66664 17.7664 8.66664C18.0346 8.66664 18.2917 8.56011 18.4814 8.37049C18.671 8.18087 18.7775 7.92369 18.7775 7.65553C18.7775 7.38736 18.671 7.13018 18.4814 6.94056C18.2917 6.75094 18.0346 6.64442 17.7664 6.64442ZM12.7108 7.65553C9.92321 7.65553 7.65528 9.92345 7.65528 12.7111C7.65528 15.4987 9.92321 17.7666 12.7108 17.7666C15.4985 17.7666 17.7664 15.4987 17.7664 12.7111C17.7664 9.92345 15.4985 7.65553 12.7108 7.65553ZM12.7108 9.67775C14.3832 9.67775 15.7442 11.0387 15.7442 12.7111C15.7442 14.3835 14.3832 15.7444 12.7108 15.7444C11.0385 15.7444 9.67751 14.3835 9.67751 12.7111C9.67751 11.0387 11.0385 9.67775 12.7108 9.67775Z" fill="white" fill-opacity="0.5"/>
</svg>
